<svg xmlns="http://www.w3.org/2000/svg" width="435.19" height="881.711" viewBox="0 0 435.19 881.711">
  <path id="Sustracción_2" data-name="Sustracción 2" d="M1484.732,1227.241h0V364.972c8.751-3.2,17.761-6.047,26.779-8.468,8.989-2.413,18.2-4.459,27.387-6.08s18.53-2.853,27.814-3.666,18.736-1.228,28.058-1.228c8.176,0,16.451.318,24.594.944,8.181.629,16.432,1.586,24.525,2.843,8.143,1.265,16.33,2.866,24.334,4.759,8.066,1.908,16.149,4.159,24.025,6.692a314.9,314.9,0,0,1,90.6,46.424l12.452,9.179a316.4,316.4,0,0,1,24.812,20.309,310.1,310.1,0,0,1,22.14,22.243,306.361,306.361,0,0,1,19.436,23.955c5.968,8.169,11.586,16.731,16.7,25.446,5.065,8.635,9.752,17.622,13.931,26.714,4.149,9.027,7.894,18.367,11.131,27.76,3.222,9.351,6.014,18.968,8.3,28.585,2.28,9.6,4.109,19.416,5.435,29.187,1.3,9.577,2.147,19.327,2.517,28.98.371,9.678.272,19.481-.3,29.136-.57,9.7-1.625,19.489-3.138,29.083-1.523,9.664-3.545,19.36-6.01,28.821-2.487,9.548-5.486,19.086-8.912,28.35-3.464,9.366-7.45,18.676-11.845,27.67a304.841,304.841,0,0,1-14.807,26.781,310.8,310.8,0,0,1-17.8,25.682l-209.927,272.521a309.61,309.61,0,0,1-73.491,68.705c-6.807,4.545-13.889,8.878-21.051,12.879-7.107,3.971-14.47,7.715-21.886,11.128-7.371,3.392-14.976,6.541-22.6,9.36-7.594,2.806-15.4,5.355-23.2,7.577Z" transform="translate(-1484.732 -345.53)" fill="#fff0eb"/>
</svg>
