<svg xmlns="http://www.w3.org/2000/svg" width="818.374" height="736.103" viewBox="0 0 818.374 736.103">
  <path id="Sustracción_1" data-name="Sustracción 1" d="M274.694,998.7a270.567,270.567,0,0,1-48.569-4.449,284.217,284.217,0,0,1-48.259-13.358,294.505,294.505,0,0,1-46.561-22.28A303.923,303.923,0,0,1,87.831,927.4L68.123,910.432a301.428,301.428,0,0,1-40.3-42.07,287.774,287.774,0,0,1-30.093-47A273.627,273.627,0,0,1-21.925,771.2a256.68,256.68,0,0,1-8.987-51.531,239.412,239.412,0,0,1,.952-43.816,224.528,224.528,0,0,1,9.068-42.408,212.33,212.33,0,0,1,43.066-76.139L281.606,262.6l504.9.391.374,274.933c-2.826,3.668-5.817,7.3-8.89,10.788l-330.109,375a214.288,214.288,0,0,1-36.307,32.785A219.981,219.981,0,0,1,369.6,979.93,234.752,234.752,0,0,1,323.472,994,253.238,253.238,0,0,1,274.694,998.7Z" transform="translate(31.495 -262.596)" fill="#fff0eb"/>
</svg>
